# xmcd
#
# Track frame offsets:
#	150
#	24693
#	49196
#	70365
#	84675
#	110393
#	121845
#	139556
#	160250
#
# Disc length: 2497 seconds
# Revision: 0
# Processed by: cddbd v1.5.2PL0 Copyright (c) Steve Scherf et al.
# Submitted via: dBpowerAMP V12.0
#
DISCID=7609bf09
DTITLE=Vale of Pnath - The Prodigal Empire
DYEAR=2011
DGENRE=Metal
TTITLE0=Legacy of Loss
TTITLE1=Mental Crucifixion
TTITLE2=Brain Butchers
TTITLE3=The Prodigal Empire
TTITLE4=Borne Extinction
TTITLE5=Poisoned by Prosperity
TTITLE6=Time of Reckoning
TTITLE7=Sightless
TTITLE8=Cerulean Eclipse
EXTD=
EXTT0=
EXTT1=
EXTT2=
EXTT3=
EXTT4=
EXTT5=
EXTT6=
EXTT7=
EXTT8=
PLAYORDER=
